<svg version="1.1" id="Layer_1" xmlns="http://www.w3.org/2000/svg" xmlns:xlink="http://www.w3.org/1999/xlink" x="0px" y="0px"
	 viewBox="0 0 511.999 511.999" style="enable-background:new 0 0 511.999 511.999;" xml:space="preserve">
<path style="fill:rgba(180,180,180,1);" d="M472.984,116.252c0-58.108-62.807-105.213-140.283-105.213S192.417,58.144,192.417,116.252
	c0,53.633,53.508,97.892,122.672,104.389c2.571,21.68,3.245,58.377-18.097,74.154c0,0,63.957-10.995,89.364-81.308
	C437.208,197.686,472.984,160.105,472.984,116.252z"/>
<circle style="fill:#FFE1C2;" cx="154.938" cy="296.716" r="71.761"/>
<path style="fill:rgba(90,170,40,1);" d="M154.938,368.477L154.938,368.477c-64.022,0-115.922,51.9-115.922,115.922v16.56H270.86V484.4
	C270.86,420.377,218.96,368.477,54.938,368.477z"/>
<g>
	<path style="fill:rgba(90,170,40,1);" d="M438.52,33.023C410.124,11.728,372.544,0,332.701,0s-77.425,11.728-105.82,33.023
		c-29.344,22.009-45.504,51.565-45.504,83.229c0,56.286,52.495,104.227,123.549,114.307c1.16,17.24,0.332,44.398-14.496,55.358
		c-4.114,3.04-5.599,8.508-3.591,13.213c1.758,4.117,5.789,6.707,10.148,6.707c0.622,0,1.248-0.053,1.876-0.161
		c2.804-0.482,67.524-12.382,95.935-83.335c54.394-18.701,89.227-59.88,89.227-106.089C484.024,84.589,467.863,55.032,438.52,33.023
		z M383.078,202.944c-3.301,1.027-5.932,3.539-7.108,6.791c-9.54,26.402-25.941,46.873-48.748,60.846
		c-1.232,0.755-2.452,1.471-3.654,2.147c4.866-17.165,4.444-36.85,2.483-53.387c-0.614-5.168-4.751-9.205-9.931-9.691
		c-64.23-6.035-112.665-46.188-112.665-93.399c0.001-51.925,57.98-94.171,129.245-94.171s129.243,42.245,129.243,94.172
		C461.944,154.028,430.987,188.058,383.078,202.944z"/>
	<path style="fill:#fff;" d="M278.29,105.213c-2.916,0-5.764,1.18-7.805,3.235c-2.053,2.053-3.235,4.902-3.235,7.805
		c0,2.904,1.18,5.752,3.235,7.804c2.052,2.053,4.901,3.236,7.805,3.236c2.904,0,5.752-1.181,7.804-3.236
		c2.053-2.052,3.236-4.901,3.236-7.804c0-2.904-1.181-5.752-3.236-7.805C284.042,106.393,281.194,105.213,278.29,105.213z"/>
	<path style="fill:#fff;" d="M332.696,105.213c-6.094,0-11.04,4.945-11.04,11.04c0,6.094,4.946,11.04,11.04,11.04
		c6.105,0,11.04-4.946,11.04-11.04C343.736,110.158,338.801,105.213,332.696,105.213z"/>
	<path style="fill:#fff;" d="M387.113,105.213c-2.904,0-5.752,1.18-7.804,3.235c-2.053,2.053-3.236,4.902-3.236,7.805
		c0,2.904,1.181,5.752,3.236,7.804c2.052,2.053,4.901,3.236,7.804,3.236c2.904,0,5.752-1.181,7.805-3.236
		c2.053-2.052,3.235-4.901,3.235-7.804c0-2.904-1.18-5.752-3.235-7.805C392.864,106.394,390.017,105.213,387.113,105.213z"/>
	<path style="fill:rgba(90,170,40,1);" d="M277.707,452.01c-10.446-39.563-39.554-71.618-77.296-86.147
		c22.466-14.824,37.328-40.277,37.328-69.148c0-45.657-37.145-82.801-82.801-82.801s-82.801,37.145-82.801,82.801
		c0,28.871,14.862,54.324,37.328,69.148C61.854,384.19,27.976,430.41,27.976,484.398v16.56c0,6.096,4.944,11.04,11.04,11.04H270.86
		c6.096,0,11.04-4.944,11.04-11.04v-16.56c0-10.742-1.347-21.175-3.87-31.144C277.947,452.83,277.837,452.416,277.707,452.01z
		 M94.217,296.716c0-33.482,27.239-60.721,60.721-60.721s60.721,27.239,60.721,60.721s-27.239,60.721-60.721,60.721
		S94.217,330.198,94.217,296.716z M259.82,489.92H50.056v-5.52c0-57.832,47.05-104.882,104.882-104.882
		c43.657,0,81.165,26.817,96.931,64.84h-41.73c-6.096,0-11.04,4.944-11.04,11.04s4.944,11.04,11.04,11.04h48.136
		c1.011,5.838,1.545,11.838,1.545,17.961V489.92z"/>
	<path style="fill:#fff;" d="M159.354,444.358h-4.416c-6.096,0-11.04,4.944-11.04,11.04s4.944,11.04,11.04,11.04h4.416
		c6.096,0,11.04-4.944,11.04-11.04S165.451,444.358,159.354,444.358z"/>
</g>
<g>
</g>
<g>
</g>
<g>
</g>
<g>
</g>
<g>
</g>
<g>
</g>
<g>
</g>
<g>
</g>
<g>
</g>
<g>
</g>
<g>
</g>
<g>
</g>
<g>
</g>
<g>
</g>
<g>
</g>
</svg>
