<svg version="1.1" id="Layer_1" xmlns="http://www.w3.org/2000/svg" xmlns:xlink="http://www.w3.org/1999/xlink" x="0px" y="0px"
	 viewBox="0 0 512 512" style="enable-background:new 0 0 512 512;" xml:space="preserve">
<rect x="11.636" y="153.798" style="fill:#ECF0F1;" width="488.727" height="331.636"/>
<path style="fill:#ECF0F1;" d="M202.92,260.477v144.151c0-18.641-16.268-33.745-34.909-33.745H97.029
	c-18.641,0-34.909,15.104-34.909,33.745V260.477H202.92L202.92,260.477z"/>
<g>
	<path style="fill:#0BBBDA;" d="M158.876,328.166v21.574c0,11.671-9.472,21.143-21.143,21.143h-10.426
		c-11.671,0-21.143-9.472-21.143-21.143v-21.574c0-11.683,9.472-21.143,21.143-21.143h10.426
		C149.404,307.023,158.876,316.483,158.876,328.166z"/>
	<rect x="11.636" y="153.798" style="fill:#0BBBDA;" width="488.727" height="58.182"/>
</g>
<g>
	<polygon style="fill:rgba(90,170,40,1);" points="305.455,153.802 305.455,96.784 206.545,96.784 206.545,153.802 160,153.802 160,211.984 
		352,211.984 352,153.802 	"/>
	<path style="fill:rgba(90,170,40,1);" d="M202.92,404.628v32.721H62.12v-32.721c0-18.641,16.268-33.745,34.909-33.745h70.982
		C186.652,370.883,202.92,385.987,202.92,404.628z"/>
</g>
<g>
	<path style="fill:#666;" d="M202.92,248.841H62.12c-6.427,0-11.636,5.211-11.636,11.636V437.35
		c0,6.426,5.21,11.636,11.636,11.636h140.8c6.427,0,11.636-5.211,11.636-11.636V260.477
		C214.556,254.051,209.346,248.841,202.92,248.841z M73.756,272.113h117.527v93.427c-6.597-3.814-14.186-6.068-22.192-6.257
		c0.922-3.021,1.421-6.225,1.421-9.544v-21.574c0-18.075-14.705-32.78-32.78-32.78h-10.426c-18.075,0-32.78,14.705-32.78,32.78
		v21.574c0,3.319,0.5,6.522,1.421,9.544c-8.007,0.19-15.596,2.442-22.192,6.257C73.756,365.541,73.756,272.113,73.756,272.113z
		 M117.8,349.74v-21.574c0-5.242,4.265-9.507,9.507-9.507h10.426c5.242,0,9.507,4.265,9.507,9.507v21.574
		c0,5.242-4.265,9.507-9.507,9.507h-10.426C122.064,359.247,117.8,354.982,117.8,349.74z M191.283,425.713H73.756v-21.085
		c0-11.984,10.658-22.109,23.273-22.109h70.982c12.615,0,23.273,10.125,23.273,22.109V425.713z"/>
	<path style="fill:#231F20;" d="M262.749,272.113h115.587c6.427,0,11.636-5.211,11.636-11.636s-5.21-11.636-11.636-11.636H262.749
		c-6.427,0-11.636,5.211-11.636,11.636S256.322,272.113,262.749,272.113z"/>
	<path style="fill:#231F20;" d="M452.81,295.386H262.749c-6.427,0-11.636,5.211-11.636,11.636s5.21,11.636,11.636,11.636h190.06
		c6.427,0,11.636-5.211,11.636-11.636S459.237,295.386,452.81,295.386z"/>
	<path style="fill:#231F20;" d="M452.81,341.932H262.749c-6.427,0-11.636,5.211-11.636,11.636c0,6.426,5.21,11.636,11.636,11.636
		h190.06c6.427,0,11.636-5.211,11.636-11.636C464.446,347.142,459.237,341.932,452.81,341.932z"/>
	<path style="fill:#231F20;" d="M452.81,387.313c-6.427,0-11.636,5.211-11.636,11.636v38.4c0,6.426,5.21,11.636,11.636,11.636
		c6.427,0,11.636-5.211,11.636-11.636v-38.4C464.447,392.524,459.237,387.313,452.81,387.313z"/>
	<path style="fill:#231F20;" d="M405.295,387.313c-6.427,0-11.636,5.211-11.636,11.636v38.4c0,6.426,5.21,11.636,11.636,11.636
		c6.427,0,11.636-5.211,11.636-11.636v-38.4C416.931,392.524,411.721,387.313,405.295,387.313z"/>
	<path style="fill:#231F20;" d="M357.78,387.313c-6.427,0-11.636,5.211-11.636,11.636v38.4c0,6.426,5.21,11.636,11.636,11.636
		c6.427,0,11.636-5.211,11.636-11.636v-38.4C369.416,392.524,364.207,387.313,357.78,387.313z"/>
	<path style="fill:#231F20;" d="M310.265,387.313c-6.427,0-11.636,5.211-11.636,11.636v38.4c0,6.426,5.21,11.636,11.636,11.636
		c6.427,0,11.636-5.211,11.636-11.636v-38.4C321.901,392.524,316.692,387.313,310.265,387.313z"/>
	<path style="fill:#231F20;" d="M262.749,387.313c-6.427,0-11.636,5.211-11.636,11.636v38.4c0,6.426,5.21,11.636,11.636,11.636
		s11.636-5.211,11.636-11.636v-38.4C274.385,392.524,269.176,387.313,262.749,387.313z"/>
	<path style="fill:#271F20;" d="M500.364,142.166H317.091V101.59l66.799-66.799c4.544-4.544,4.544-11.912,0-16.457
		c-4.544-4.543-11.912-4.543-16.457,0L300.62,85.146h-89.254l-66.813-66.813c-4.544-4.543-11.912-4.543-16.457,0
		c-4.544,4.544-4.544,11.912,0,16.457l66.814,66.813v40.561H11.636C5.21,142.164,0,147.375,0,153.801v331.636
		c0,6.426,5.21,11.636,11.636,11.636h488.727c6.427,0,11.636-5.211,11.636-11.636V153.801
		C512,147.375,506.79,142.166,500.364,142.166z M488.727,200.347H363.636v-34.909h125.091V200.347z M218.182,108.42h75.636v45.382
		c0,6.426,5.21,11.636,11.636,11.636h34.909v34.909H171.636v-34.909h34.909c6.427,0,11.636-5.211,11.636-11.636V108.42z
		 M23.273,165.438h125.091v34.909H23.273V165.438z M23.273,473.802V223.62h465.455v250.182H23.273z"/>
</g>
<g>
</g>
<g>
</g>
<g>
</g>
<g>
</g>
<g>
</g>
<g>
</g>
<g>
</g>
<g>
</g>
<g>
</g>
<g>
</g>
<g>
</g>
<g>
</g>
<g>
</g>
<g>
</g>
<g>
</g>
</svg>
