<svg xmlns="http://www.w3.org/2000/svg" xmlns:xlink="http://www.w3.org/1999/xlink" version="1.1" x="0px" y="0px" viewBox="0 0 64 80" style="enable-background:new 0 0 64 64;" xml:space="preserve"><g><g><path d="M54.272,10.62h-2.709V9.278c0-1.965-1.598-3.563-3.563-3.563s-3.563,1.598-3.563,3.563v1.342h-8.875V9.278    c0-1.965-1.598-3.563-3.563-3.563s-3.563,1.598-3.563,3.563v1.342h-8.875V9.278c0-1.965-1.598-3.563-3.563-3.563    s-3.563,1.598-3.563,3.563v1.342H9.728c-1.627,0-2.951,1.324-2.951,2.951v5.082c0,1.345,0.91,2.47,2.143,2.825v27.224    c0,0.01,0.003,0.02,0.003,0.03v4.552c0,2.757,2.243,5,5,5h36.154c2.757,0,5-2.243,5-5v-9.326c0.001-0.015,0.003-0.029,0.003-0.043    V21.478c1.233-0.354,2.143-1.48,2.143-2.825v-5.082C57.223,11.944,55.899,10.62,54.272,10.62z M46.438,9.278    c0-0.861,0.701-1.563,1.563-1.563s1.563,0.701,1.563,1.563v1.342h-3.125V9.278z M30.438,9.278c0-0.861,0.701-1.563,1.563-1.563    s1.563,0.701,1.563,1.563v1.342h-3.125V9.278z M14.438,9.278c0-0.861,0.701-1.563,1.563-1.563s1.563,0.701,1.563,1.563v1.342    h-3.125V9.278z M23.125,30.357c-0.658,0-1.193-0.535-1.193-1.193c0-0.963,0.668-3.124,1.193-3.729    c0.525,0.605,1.193,2.767,1.193,3.729C24.318,29.822,23.783,30.357,23.125,30.357z M42.64,35.696c1.636,0,2.966,1.318,2.995,2.947    c-0.341,0.193-0.635,0.405-0.9,0.604c-0.622,0.466-1.071,0.803-2.075,0.803c-1.003,0-1.451-0.336-2.07-0.801    c-0.712-0.534-1.598-1.199-3.26-1.199c-1.668,0-2.556,0.665-3.27,1.199c-0.62,0.465-1.068,0.801-2.07,0.801    c-0.996,0-1.441-0.335-2.059-0.799c-0.713-0.535-1.601-1.201-3.271-1.201c-1.663,0-2.548,0.665-3.26,1.199    c-0.62,0.465-1.067,0.801-2.07,0.801c-0.996,0-1.443-0.336-2.063-0.801c-0.266-0.199-0.56-0.412-0.902-0.606    c0.029-1.629,1.358-2.947,2.995-2.947H42.64z M32,30.357c-0.658,0-1.193-0.535-1.193-1.193c0-0.963,0.668-3.124,1.193-3.729    c0.525,0.605,1.193,2.767,1.193,3.729C33.193,29.822,32.658,30.357,32,30.357z M40.875,30.357c-0.658,0-1.193-0.535-1.193-1.193    c0-0.963,0.668-3.124,1.193-3.729c0.525,0.605,1.193,2.767,1.193,3.729C42.068,29.822,41.533,30.357,40.875,30.357z M18.36,41.065    c0.668,0.483,1.526,0.985,2.97,0.985c1.67,0,2.558-0.666,3.271-1.201c0.618-0.464,1.063-0.799,2.059-0.799    c1.002,0,1.451,0.336,2.07,0.801c0.712,0.534,1.597,1.199,3.26,1.199c1.668,0,2.556-0.665,3.27-1.199    c0.62-0.465,1.068-0.801,2.07-0.801c0.996,0,1.441,0.335,2.059,0.799c0.713,0.535,1.602,1.201,3.271,1.201    c1.45,0,2.311-0.503,2.98-0.985v1.248c-1.265,0.353-2.2,1.503-2.2,2.878v1.699H19.36c-0.551,0-1-0.448-1-1V41.065z M45.44,45.19    c0-0.552,0.449-1,1-1h6.226l-6.761,6.761c-0.144,0.143-0.3,0.27-0.465,0.38V45.19z M53.077,42.19H47.64v-3.494    c0-2.757-2.243-5-5-5h-0.765v-1.515c1.269-0.422,2.193-1.608,2.193-3.017c0-0.988-0.87-5.825-3.193-5.825    s-3.193,4.837-3.193,5.825c0,1.409,0.924,2.595,2.193,3.017v1.515H33v-1.515c1.269-0.422,2.193-1.608,2.193-3.017    c0-0.988-0.87-5.825-3.193-5.825s-3.193,4.837-3.193,5.825c0,1.409,0.924,2.595,2.193,3.017v1.515h-6.875v-1.515    c1.269-0.422,2.193-1.608,2.193-3.017c0-0.988-0.87-5.825-3.193-5.825s-3.193,4.837-3.193,5.825c0,1.409,0.924,2.595,2.193,3.017    v1.515H21.36c-2.757,0-5,2.243-5,5v7.193c0,1.654,1.346,3,3,3h24.08v2.94H13.92c-1.644,0-2.981-1.387-2.997-3.098V21.604h42.154    V42.19z M50.077,56.284H13.923c-1.654,0-3-1.346-3-3v-0.503c0.838,0.649,1.869,1.049,2.997,1.049h29.863    c1.335,0,2.59-0.521,3.536-1.465l5.758-5.758v6.677C53.077,54.938,51.731,56.284,50.077,56.284z M55.223,18.653    c0,0.533-0.418,0.951-0.951,0.951H9.728c-0.533,0-0.951-0.418-0.951-0.951v-5.082c0-0.524,0.427-0.951,0.951-0.951h2.709v1.342    c0,1.965,1.598,3.563,3.563,3.563c0.552,0,1-0.447,1-1s-0.448-1-1-1c-0.861,0-1.563-0.701-1.563-1.563V12.62h14v1.342    c0,1.965,1.598,3.563,3.563,3.563c0.552,0,1-0.447,1-1s-0.448-1-1-1c-0.861,0-1.563-0.701-1.563-1.563V12.62h14v1.342    c0,1.965,1.598,3.563,3.563,3.563c0.552,0,1-0.447,1-1s-0.448-1-1-1c-0.861,0-1.563-0.701-1.563-1.563V12.62h7.834    c0.524,0,0.951,0.427,0.951,0.951V18.653z"/></g></g></svg>